<mxfile modified="2022-10-23T16:50:00.452Z" host="app.diagrams.net" agent="5.0 (Windows NT 10.0; Win64; x64) AppleWebKit/537.36 (KHTML, like Gecko) Chrome/106.0.0.0 Safari/537.36" etag="EaiuM2lWiNGK-iu8Ov6i" version="20.5.1" type="github">
  <diagram id="C2fSY1v2SiZeoUbDoYyL" name="Page-1">
    <mxGraphModel dx="1673" dy="896" grid="1" gridSize="10" guides="1" tooltips="1" connect="1" arrows="1" fold="1" page="1" pageScale="1" pageWidth="1654" pageHeight="1169" math="0" shadow="0">
      <root>
        <mxCell id="0" />
        <mxCell id="1" parent="0" />
        <mxCell id="mZHqQBj5hLjFbB_GEljO-1" value="Lance-36" style="rounded=0;whiteSpace=wrap;html=1;fillColor=#d5e8d4;strokeColor=#82b366;" vertex="1" parent="1">
          <mxGeometry x="550" y="50" width="120" height="60" as="geometry" />
        </mxCell>
        <mxCell id="mZHqQBj5hLjFbB_GEljO-8" style="edgeStyle=orthogonalEdgeStyle;rounded=0;orthogonalLoop=1;jettySize=auto;html=1;exitX=0.5;exitY=0;exitDx=0;exitDy=0;entryX=0;entryY=0.5;entryDx=0;entryDy=0;" edge="1" parent="1" source="mZHqQBj5hLjFbB_GEljO-2" target="mZHqQBj5hLjFbB_GEljO-1">
          <mxGeometry relative="1" as="geometry" />
        </mxCell>
        <mxCell id="mZHqQBj5hLjFbB_GEljO-2" value="Assembly Materials III&lt;br&gt;(AM:III)" style="ellipse;whiteSpace=wrap;html=1;fillColor=#f8cecc;strokeColor=#b85450;" vertex="1" parent="1">
          <mxGeometry x="190" y="170" width="140" height="80" as="geometry" />
        </mxCell>
        <mxCell id="mZHqQBj5hLjFbB_GEljO-7" style="edgeStyle=orthogonalEdgeStyle;rounded=0;orthogonalLoop=1;jettySize=auto;html=1;exitX=0.5;exitY=0;exitDx=0;exitDy=0;entryX=0.25;entryY=1;entryDx=0;entryDy=0;" edge="1" parent="1" source="mZHqQBj5hLjFbB_GEljO-3" target="mZHqQBj5hLjFbB_GEljO-1">
          <mxGeometry relative="1" as="geometry" />
        </mxCell>
        <mxCell id="mZHqQBj5hLjFbB_GEljO-3" value="Assembly Materials IV&lt;br&gt;(AM:IV)" style="ellipse;whiteSpace=wrap;html=1;fillColor=#f8cecc;strokeColor=#b85450;" vertex="1" parent="1">
          <mxGeometry x="360" y="170" width="140" height="80" as="geometry" />
        </mxCell>
        <mxCell id="mZHqQBj5hLjFbB_GEljO-9" style="edgeStyle=orthogonalEdgeStyle;rounded=0;orthogonalLoop=1;jettySize=auto;html=1;exitX=0.5;exitY=0;exitDx=0;exitDy=0;entryX=0.5;entryY=1;entryDx=0;entryDy=0;" edge="1" parent="1" source="mZHqQBj5hLjFbB_GEljO-4" target="mZHqQBj5hLjFbB_GEljO-1">
          <mxGeometry relative="1" as="geometry" />
        </mxCell>
        <mxCell id="mZHqQBj5hLjFbB_GEljO-4" value="Assembly Materials V" style="ellipse;whiteSpace=wrap;html=1;fillColor=#f8cecc;strokeColor=#b85450;" vertex="1" parent="1">
          <mxGeometry x="960" y="160" width="140" height="80" as="geometry" />
        </mxCell>
        <mxCell id="mZHqQBj5hLjFbB_GEljO-12" style="edgeStyle=orthogonalEdgeStyle;rounded=0;orthogonalLoop=1;jettySize=auto;html=1;exitX=0.5;exitY=0;exitDx=0;exitDy=0;entryX=1;entryY=0.5;entryDx=0;entryDy=0;" edge="1" parent="1" source="mZHqQBj5hLjFbB_GEljO-10" target="mZHqQBj5hLjFbB_GEljO-1">
          <mxGeometry relative="1" as="geometry" />
        </mxCell>
        <mxCell id="mZHqQBj5hLjFbB_GEljO-34" style="edgeStyle=orthogonalEdgeStyle;rounded=0;orthogonalLoop=1;jettySize=auto;html=1;exitX=0.5;exitY=0;exitDx=0;exitDy=0;entryX=1;entryY=1;entryDx=0;entryDy=0;" edge="1" parent="1" source="mZHqQBj5hLjFbB_GEljO-10" target="mZHqQBj5hLjFbB_GEljO-4">
          <mxGeometry relative="1" as="geometry" />
        </mxCell>
        <mxCell id="mZHqQBj5hLjFbB_GEljO-10" value="Steel Construction Materials&lt;br&gt;(SCM)" style="ellipse;whiteSpace=wrap;html=1;" vertex="1" parent="1">
          <mxGeometry x="1110" y="310" width="120" height="80" as="geometry" />
        </mxCell>
        <mxCell id="mZHqQBj5hLjFbB_GEljO-15" style="edgeStyle=orthogonalEdgeStyle;rounded=0;orthogonalLoop=1;jettySize=auto;html=1;exitX=0.5;exitY=0;exitDx=0;exitDy=0;entryX=0.5;entryY=1;entryDx=0;entryDy=0;" edge="1" parent="1" source="mZHqQBj5hLjFbB_GEljO-13" target="mZHqQBj5hLjFbB_GEljO-3">
          <mxGeometry relative="1" as="geometry">
            <Array as="points">
              <mxPoint x="430" y="400" />
              <mxPoint x="430" y="400" />
            </Array>
          </mxGeometry>
        </mxCell>
        <mxCell id="mZHqQBj5hLjFbB_GEljO-16" style="edgeStyle=orthogonalEdgeStyle;rounded=0;orthogonalLoop=1;jettySize=auto;html=1;exitX=1;exitY=0;exitDx=0;exitDy=0;entryX=0;entryY=1;entryDx=0;entryDy=0;" edge="1" parent="1" source="mZHqQBj5hLjFbB_GEljO-13" target="mZHqQBj5hLjFbB_GEljO-10">
          <mxGeometry relative="1" as="geometry" />
        </mxCell>
        <mxCell id="mZHqQBj5hLjFbB_GEljO-13" value="Processed Construction Materials &lt;br&gt;(PCM)" style="ellipse;whiteSpace=wrap;html=1;" vertex="1" parent="1">
          <mxGeometry x="355" y="450" width="150" height="90" as="geometry" />
        </mxCell>
        <mxCell id="mZHqQBj5hLjFbB_GEljO-66" style="edgeStyle=orthogonalEdgeStyle;rounded=0;orthogonalLoop=1;jettySize=auto;html=1;exitX=0.5;exitY=0;exitDx=0;exitDy=0;entryX=1;entryY=1;entryDx=0;entryDy=0;" edge="1" parent="1" source="mZHqQBj5hLjFbB_GEljO-17" target="mZHqQBj5hLjFbB_GEljO-3">
          <mxGeometry relative="1" as="geometry" />
        </mxCell>
        <mxCell id="mZHqQBj5hLjFbB_GEljO-67" style="edgeStyle=orthogonalEdgeStyle;rounded=0;orthogonalLoop=1;jettySize=auto;html=1;exitX=1;exitY=0;exitDx=0;exitDy=0;entryX=0;entryY=1;entryDx=0;entryDy=0;" edge="1" parent="1" source="mZHqQBj5hLjFbB_GEljO-17" target="mZHqQBj5hLjFbB_GEljO-42">
          <mxGeometry relative="1" as="geometry">
            <Array as="points">
              <mxPoint x="639" y="580" />
              <mxPoint x="1259" y="580" />
            </Array>
          </mxGeometry>
        </mxCell>
        <mxCell id="mZHqQBj5hLjFbB_GEljO-68" style="edgeStyle=orthogonalEdgeStyle;rounded=0;orthogonalLoop=1;jettySize=auto;html=1;exitX=0;exitY=0;exitDx=0;exitDy=0;entryX=1;entryY=1;entryDx=0;entryDy=0;" edge="1" parent="1" source="mZHqQBj5hLjFbB_GEljO-17" target="mZHqQBj5hLjFbB_GEljO-13">
          <mxGeometry relative="1" as="geometry">
            <Array as="points">
              <mxPoint x="541" y="580" />
              <mxPoint x="483" y="580" />
            </Array>
          </mxGeometry>
        </mxCell>
        <mxCell id="mZHqQBj5hLjFbB_GEljO-17" value="Heavy Oil&lt;br&gt;(HO)" style="ellipse;whiteSpace=wrap;html=1;" vertex="1" parent="1">
          <mxGeometry x="520" y="610" width="140" height="80" as="geometry" />
        </mxCell>
        <mxCell id="mZHqQBj5hLjFbB_GEljO-27" style="edgeStyle=orthogonalEdgeStyle;rounded=0;orthogonalLoop=1;jettySize=auto;html=1;exitX=0.5;exitY=0;exitDx=0;exitDy=0;entryX=0;entryY=1;entryDx=0;entryDy=0;" edge="1" parent="1" source="mZHqQBj5hLjFbB_GEljO-21" target="mZHqQBj5hLjFbB_GEljO-17">
          <mxGeometry relative="1" as="geometry" />
        </mxCell>
        <mxCell id="mZHqQBj5hLjFbB_GEljO-21" value="Water" style="ellipse;whiteSpace=wrap;html=1;fillColor=#dae8fc;strokeColor=#6c8ebf;" vertex="1" parent="1">
          <mxGeometry x="500" y="810" width="80" height="50" as="geometry" />
        </mxCell>
        <mxCell id="mZHqQBj5hLjFbB_GEljO-51" style="edgeStyle=orthogonalEdgeStyle;rounded=0;orthogonalLoop=1;jettySize=auto;html=1;exitX=0;exitY=0;exitDx=0;exitDy=0;entryX=1;entryY=1;entryDx=0;entryDy=0;" edge="1" parent="1" source="mZHqQBj5hLjFbB_GEljO-22" target="mZHqQBj5hLjFbB_GEljO-31">
          <mxGeometry relative="1" as="geometry">
            <Array as="points">
              <mxPoint x="930" y="817" />
              <mxPoint x="930" y="600" />
            </Array>
          </mxGeometry>
        </mxCell>
        <mxCell id="mZHqQBj5hLjFbB_GEljO-54" style="edgeStyle=orthogonalEdgeStyle;rounded=0;orthogonalLoop=1;jettySize=auto;html=1;exitX=1;exitY=0;exitDx=0;exitDy=0;entryX=0.5;entryY=1;entryDx=0;entryDy=0;" edge="1" parent="1" source="mZHqQBj5hLjFbB_GEljO-22" target="mZHqQBj5hLjFbB_GEljO-30">
          <mxGeometry relative="1" as="geometry" />
        </mxCell>
        <mxCell id="mZHqQBj5hLjFbB_GEljO-69" style="edgeStyle=orthogonalEdgeStyle;rounded=0;orthogonalLoop=1;jettySize=auto;html=1;exitX=0.5;exitY=0;exitDx=0;exitDy=0;entryX=0.5;entryY=1;entryDx=0;entryDy=0;fillColor=#dae8fc;strokeColor=#6c8ebf;" edge="1" parent="1" source="mZHqQBj5hLjFbB_GEljO-22" target="mZHqQBj5hLjFbB_GEljO-63">
          <mxGeometry relative="1" as="geometry">
            <Array as="points">
              <mxPoint x="960" y="790" />
              <mxPoint x="260" y="790" />
            </Array>
          </mxGeometry>
        </mxCell>
        <mxCell id="mZHqQBj5hLjFbB_GEljO-22" value="Salvage" style="ellipse;whiteSpace=wrap;html=1;fillColor=#dae8fc;strokeColor=#6c8ebf;" vertex="1" parent="1">
          <mxGeometry x="920" y="810" width="80" height="50" as="geometry" />
        </mxCell>
        <mxCell id="mZHqQBj5hLjFbB_GEljO-28" style="edgeStyle=orthogonalEdgeStyle;rounded=0;orthogonalLoop=1;jettySize=auto;html=1;exitX=0.5;exitY=0;exitDx=0;exitDy=0;entryX=0;entryY=1;entryDx=0;entryDy=0;" edge="1" parent="1" source="mZHqQBj5hLjFbB_GEljO-23" target="mZHqQBj5hLjFbB_GEljO-2">
          <mxGeometry relative="1" as="geometry" />
        </mxCell>
        <mxCell id="mZHqQBj5hLjFbB_GEljO-44" style="edgeStyle=orthogonalEdgeStyle;rounded=0;orthogonalLoop=1;jettySize=auto;html=1;exitX=1;exitY=0;exitDx=0;exitDy=0;entryX=0.5;entryY=1;entryDx=0;entryDy=0;fillColor=#dae8fc;strokeColor=#6c8ebf;" edge="1" parent="1" source="mZHqQBj5hLjFbB_GEljO-23" target="mZHqQBj5hLjFbB_GEljO-42">
          <mxGeometry relative="1" as="geometry">
            <Array as="points">
              <mxPoint x="108" y="760" />
              <mxPoint x="1305" y="760" />
            </Array>
          </mxGeometry>
        </mxCell>
        <mxCell id="mZHqQBj5hLjFbB_GEljO-23" value="Sulfur" style="ellipse;whiteSpace=wrap;html=1;fillColor=#dae8fc;strokeColor=#6c8ebf;" vertex="1" parent="1">
          <mxGeometry x="40" y="810" width="80" height="50" as="geometry" />
        </mxCell>
        <mxCell id="mZHqQBj5hLjFbB_GEljO-48" style="edgeStyle=orthogonalEdgeStyle;rounded=0;orthogonalLoop=1;jettySize=auto;html=1;exitX=0.5;exitY=0;exitDx=0;exitDy=0;entryX=0.5;entryY=1;entryDx=0;entryDy=0;" edge="1" parent="1" source="mZHqQBj5hLjFbB_GEljO-24" target="mZHqQBj5hLjFbB_GEljO-13">
          <mxGeometry relative="1" as="geometry" />
        </mxCell>
        <mxCell id="mZHqQBj5hLjFbB_GEljO-24" value="Components" style="ellipse;whiteSpace=wrap;html=1;fillColor=#dae8fc;strokeColor=#6c8ebf;" vertex="1" parent="1">
          <mxGeometry x="390" y="810" width="80" height="50" as="geometry" />
        </mxCell>
        <mxCell id="mZHqQBj5hLjFbB_GEljO-61" style="edgeStyle=orthogonalEdgeStyle;rounded=0;orthogonalLoop=1;jettySize=auto;html=1;exitX=0.5;exitY=0;exitDx=0;exitDy=0;entryX=0.5;entryY=1;entryDx=0;entryDy=0;" edge="1" parent="1" source="mZHqQBj5hLjFbB_GEljO-25" target="mZHqQBj5hLjFbB_GEljO-35">
          <mxGeometry relative="1" as="geometry" />
        </mxCell>
        <mxCell id="mZHqQBj5hLjFbB_GEljO-65" style="edgeStyle=orthogonalEdgeStyle;rounded=0;orthogonalLoop=1;jettySize=auto;html=1;exitX=0;exitY=0;exitDx=0;exitDy=0;entryX=0.5;entryY=1;entryDx=0;entryDy=0;" edge="1" parent="1" source="mZHqQBj5hLjFbB_GEljO-25" target="mZHqQBj5hLjFbB_GEljO-17">
          <mxGeometry relative="1" as="geometry" />
        </mxCell>
        <mxCell id="mZHqQBj5hLjFbB_GEljO-25" value="Coal" style="ellipse;whiteSpace=wrap;html=1;fillColor=#dae8fc;strokeColor=#6c8ebf;" vertex="1" parent="1">
          <mxGeometry x="787" y="810" width="80" height="50" as="geometry" />
        </mxCell>
        <mxCell id="mZHqQBj5hLjFbB_GEljO-29" value="Oil" style="ellipse;whiteSpace=wrap;html=1;fillColor=#dae8fc;strokeColor=#6c8ebf;" vertex="1" parent="1">
          <mxGeometry x="1195" y="810" width="80" height="50" as="geometry" />
        </mxCell>
        <mxCell id="mZHqQBj5hLjFbB_GEljO-33" style="edgeStyle=orthogonalEdgeStyle;rounded=0;orthogonalLoop=1;jettySize=auto;html=1;exitX=0.5;exitY=0;exitDx=0;exitDy=0;entryX=0.5;entryY=1;entryDx=0;entryDy=0;" edge="1" parent="1" source="mZHqQBj5hLjFbB_GEljO-30" target="mZHqQBj5hLjFbB_GEljO-4">
          <mxGeometry relative="1" as="geometry" />
        </mxCell>
        <mxCell id="mZHqQBj5hLjFbB_GEljO-30" value="Assembly Materials II" style="ellipse;whiteSpace=wrap;html=1;" vertex="1" parent="1">
          <mxGeometry x="960" y="310" width="140" height="80" as="geometry" />
        </mxCell>
        <mxCell id="mZHqQBj5hLjFbB_GEljO-32" style="edgeStyle=orthogonalEdgeStyle;rounded=0;orthogonalLoop=1;jettySize=auto;html=1;exitX=0.5;exitY=0;exitDx=0;exitDy=0;entryX=0;entryY=1;entryDx=0;entryDy=0;" edge="1" parent="1" source="mZHqQBj5hLjFbB_GEljO-31" target="mZHqQBj5hLjFbB_GEljO-4">
          <mxGeometry relative="1" as="geometry">
            <mxPoint x="820" y="250" as="targetPoint" />
          </mxGeometry>
        </mxCell>
        <mxCell id="mZHqQBj5hLjFbB_GEljO-31" value="Assembly Materials I" style="ellipse;whiteSpace=wrap;html=1;" vertex="1" parent="1">
          <mxGeometry x="810" y="310" width="140" height="80" as="geometry" />
        </mxCell>
        <mxCell id="mZHqQBj5hLjFbB_GEljO-38" style="edgeStyle=orthogonalEdgeStyle;rounded=0;orthogonalLoop=1;jettySize=auto;html=1;exitX=1;exitY=0.5;exitDx=0;exitDy=0;entryX=0.5;entryY=1;entryDx=0;entryDy=0;" edge="1" parent="1" source="mZHqQBj5hLjFbB_GEljO-35" target="mZHqQBj5hLjFbB_GEljO-10">
          <mxGeometry relative="1" as="geometry" />
        </mxCell>
        <mxCell id="mZHqQBj5hLjFbB_GEljO-58" style="edgeStyle=orthogonalEdgeStyle;rounded=0;orthogonalLoop=1;jettySize=auto;html=1;exitX=1;exitY=0;exitDx=0;exitDy=0;entryX=0.5;entryY=1;entryDx=0;entryDy=0;" edge="1" parent="1" source="mZHqQBj5hLjFbB_GEljO-35" target="mZHqQBj5hLjFbB_GEljO-31">
          <mxGeometry relative="1" as="geometry" />
        </mxCell>
        <mxCell id="mZHqQBj5hLjFbB_GEljO-60" style="edgeStyle=orthogonalEdgeStyle;rounded=0;orthogonalLoop=1;jettySize=auto;html=1;exitX=0;exitY=0;exitDx=0;exitDy=0;entryX=0;entryY=0.5;entryDx=0;entryDy=0;" edge="1" parent="1" source="mZHqQBj5hLjFbB_GEljO-35" target="mZHqQBj5hLjFbB_GEljO-4">
          <mxGeometry relative="1" as="geometry">
            <Array as="points">
              <mxPoint x="774" y="200" />
            </Array>
          </mxGeometry>
        </mxCell>
        <mxCell id="mZHqQBj5hLjFbB_GEljO-35" value="Coke" style="ellipse;whiteSpace=wrap;html=1;" vertex="1" parent="1">
          <mxGeometry x="752" y="610" width="150" height="80" as="geometry" />
        </mxCell>
        <mxCell id="mZHqQBj5hLjFbB_GEljO-45" style="edgeStyle=orthogonalEdgeStyle;rounded=0;orthogonalLoop=1;jettySize=auto;html=1;exitX=0.5;exitY=0;exitDx=0;exitDy=0;entryX=1;entryY=1;entryDx=0;entryDy=0;" edge="1" parent="1" source="mZHqQBj5hLjFbB_GEljO-42" target="mZHqQBj5hLjFbB_GEljO-10">
          <mxGeometry relative="1" as="geometry" />
        </mxCell>
        <mxCell id="mZHqQBj5hLjFbB_GEljO-42" value="Enriched Oil" style="ellipse;whiteSpace=wrap;html=1;" vertex="1" parent="1">
          <mxGeometry x="1240" y="450" width="130" height="85" as="geometry" />
        </mxCell>
        <mxCell id="mZHqQBj5hLjFbB_GEljO-56" style="edgeStyle=orthogonalEdgeStyle;rounded=0;orthogonalLoop=1;jettySize=auto;html=1;exitX=0;exitY=0;exitDx=0;exitDy=0;entryX=1;entryY=1;entryDx=0;entryDy=0;" edge="1" parent="1" source="mZHqQBj5hLjFbB_GEljO-55" target="mZHqQBj5hLjFbB_GEljO-30">
          <mxGeometry relative="1" as="geometry" />
        </mxCell>
        <mxCell id="mZHqQBj5hLjFbB_GEljO-57" style="edgeStyle=orthogonalEdgeStyle;rounded=0;orthogonalLoop=1;jettySize=auto;html=1;exitX=0.5;exitY=0;exitDx=0;exitDy=0;entryX=0.5;entryY=1;entryDx=0;entryDy=0;" edge="1" parent="1" source="mZHqQBj5hLjFbB_GEljO-29" target="mZHqQBj5hLjFbB_GEljO-55">
          <mxGeometry relative="1" as="geometry" />
        </mxCell>
        <mxCell id="mZHqQBj5hLjFbB_GEljO-55" value="Petrol" style="ellipse;whiteSpace=wrap;html=1;" vertex="1" parent="1">
          <mxGeometry x="1180" y="615" width="110" height="70" as="geometry" />
        </mxCell>
        <mxCell id="mZHqQBj5hLjFbB_GEljO-63" value="Construction Materials" style="ellipse;whiteSpace=wrap;html=1;" vertex="1" parent="1">
          <mxGeometry x="190" y="610" width="140" height="80" as="geometry" />
        </mxCell>
      </root>
    </mxGraphModel>
  </diagram>
</mxfile>
